<mxfile host="Electron" agent="Mozilla/5.0 (Windows NT 10.0; Win64; x64) AppleWebKit/537.36 (KHTML, like Gecko) draw.io/25.0.2 Chrome/128.0.6613.186 Electron/32.2.5 Safari/537.36" version="25.0.2">
  <diagram name="Page-1" id="KbuiBEDcko8wEoWKqev5">
    <mxGraphModel dx="712" dy="827" grid="1" gridSize="10" guides="1" tooltips="1" connect="1" arrows="1" fold="1" page="1" pageScale="1" pageWidth="2336" pageHeight="1654" math="0" shadow="0">
      <root>
        <mxCell id="0" />
        <mxCell id="1" parent="0" />
        <mxCell id="SEiPKzEJEUvOdYNPSAye-1" value="Nonfunctional Requirememnts" style="verticalAlign=top;align=left;spacingTop=8;spacingLeft=2;spacingRight=12;shape=cube;size=10;direction=south;fontStyle=4;html=1;whiteSpace=wrap;" parent="1" vertex="1">
          <mxGeometry x="160" y="70" width="470" height="250" as="geometry" />
        </mxCell>
        <mxCell id="SEiPKzEJEUvOdYNPSAye-2" value="Functional Requirememnts" style="verticalAlign=top;align=left;spacingTop=8;spacingLeft=2;spacingRight=12;shape=cube;size=10;direction=south;fontStyle=4;html=1;whiteSpace=wrap;" parent="1" vertex="1">
          <mxGeometry x="240" y="370" width="570" height="570" as="geometry" />
        </mxCell>
        <mxCell id="w3OpeOe2oCZCXjgGL1cM-1" value="Artist" style="text;html=1;align=center;verticalAlign=middle;resizable=0;points=[];autosize=1;strokeColor=none;fillColor=none;" vertex="1" parent="1">
          <mxGeometry x="240" y="410" width="50" height="30" as="geometry" />
        </mxCell>
        <mxCell id="w3OpeOe2oCZCXjgGL1cM-2" value="1. Artist can post information of art work" style="text;html=1;align=center;verticalAlign=middle;resizable=0;points=[];autosize=1;strokeColor=none;fillColor=none;" vertex="1" parent="1">
          <mxGeometry x="265" y="440" width="230" height="30" as="geometry" />
        </mxCell>
        <mxCell id="w3OpeOe2oCZCXjgGL1cM-4" value="System using AR to display, movement, sound and light aspects of work&amp;nbsp;" style="text;html=1;align=center;verticalAlign=middle;resizable=0;points=[];autosize=1;strokeColor=none;fillColor=none;" vertex="1" parent="1">
          <mxGeometry x="165" y="100" width="410" height="30" as="geometry" />
        </mxCell>
        <mxCell id="w3OpeOe2oCZCXjgGL1cM-5" value="System can be accessed in Asia-Pacific region, Europe, Austrlia, Newzland, USA" style="text;html=1;align=center;verticalAlign=middle;resizable=0;points=[];autosize=1;strokeColor=none;fillColor=none;" vertex="1" parent="1">
          <mxGeometry x="170" y="130" width="450" height="30" as="geometry" />
        </mxCell>
        <mxCell id="w3OpeOe2oCZCXjgGL1cM-6" value="Buyer" style="text;html=1;align=center;verticalAlign=middle;resizable=0;points=[];autosize=1;strokeColor=none;fillColor=none;" vertex="1" parent="1">
          <mxGeometry x="240" y="520" width="50" height="30" as="geometry" />
        </mxCell>
        <mxCell id="w3OpeOe2oCZCXjgGL1cM-7" value="1. Buyer can select different ways of shipping" style="text;html=1;align=center;verticalAlign=middle;resizable=0;points=[];autosize=1;strokeColor=none;fillColor=none;" vertex="1" parent="1">
          <mxGeometry x="265" y="540" width="260" height="30" as="geometry" />
        </mxCell>
        <mxCell id="w3OpeOe2oCZCXjgGL1cM-8" value="2. Buyer can get total fees" style="text;html=1;align=center;verticalAlign=middle;resizable=0;points=[];autosize=1;strokeColor=none;fillColor=none;" vertex="1" parent="1">
          <mxGeometry x="265" y="570" width="160" height="30" as="geometry" />
        </mxCell>
        <mxCell id="w3OpeOe2oCZCXjgGL1cM-9" value="System can provide different company of shipping" style="text;html=1;align=center;verticalAlign=middle;resizable=0;points=[];autosize=1;strokeColor=none;fillColor=none;" vertex="1" parent="1">
          <mxGeometry x="170" y="160" width="290" height="30" as="geometry" />
        </mxCell>
        <mxCell id="w3OpeOe2oCZCXjgGL1cM-11" value="3. Buyer can get advise from artist" style="text;html=1;align=center;verticalAlign=middle;resizable=0;points=[];autosize=1;strokeColor=none;fillColor=none;" vertex="1" parent="1">
          <mxGeometry x="265" y="600" width="210" height="30" as="geometry" />
        </mxCell>
        <mxCell id="w3OpeOe2oCZCXjgGL1cM-12" value="System provide online-chat server" style="text;html=1;align=center;verticalAlign=middle;resizable=0;points=[];autosize=1;strokeColor=none;fillColor=none;" vertex="1" parent="1">
          <mxGeometry x="175" y="190" width="200" height="30" as="geometry" />
        </mxCell>
        <mxCell id="w3OpeOe2oCZCXjgGL1cM-13" value="Collector" style="text;html=1;align=center;verticalAlign=middle;resizable=0;points=[];autosize=1;strokeColor=none;fillColor=none;" vertex="1" parent="1">
          <mxGeometry x="240" y="650" width="70" height="30" as="geometry" />
        </mxCell>
        <mxCell id="w3OpeOe2oCZCXjgGL1cM-14" value="1. Collector buy artwork in fixed price" style="text;html=1;align=center;verticalAlign=middle;resizable=0;points=[];autosize=1;strokeColor=none;fillColor=none;" vertex="1" parent="1">
          <mxGeometry x="260" y="690" width="220" height="30" as="geometry" />
        </mxCell>
        <mxCell id="w3OpeOe2oCZCXjgGL1cM-16" value="2. Collector can take part in online auctions" style="text;html=1;align=center;verticalAlign=middle;resizable=0;points=[];autosize=1;strokeColor=none;fillColor=none;" vertex="1" parent="1">
          <mxGeometry x="260" y="720" width="250" height="30" as="geometry" />
        </mxCell>
        <mxCell id="w3OpeOe2oCZCXjgGL1cM-18" value="Dealer" style="text;html=1;align=center;verticalAlign=middle;resizable=0;points=[];autosize=1;strokeColor=none;fillColor=none;" vertex="1" parent="1">
          <mxGeometry x="240" y="760" width="60" height="30" as="geometry" />
        </mxCell>
        <mxCell id="w3OpeOe2oCZCXjgGL1cM-19" value="1.&amp;nbsp;&lt;span style=&quot;background-color: initial;&quot;&gt;Art Dealer can upload identification certificates and proof&lt;br/&gt;of origin of works of art&lt;/span&gt;&lt;p class=&quot;MsoNormal&quot;&gt;&lt;/p&gt;" style="text;html=1;align=center;verticalAlign=middle;resizable=0;points=[];autosize=1;strokeColor=none;fillColor=none;" vertex="1" parent="1">
          <mxGeometry x="260" y="790" width="340" height="50" as="geometry" />
        </mxCell>
        <mxCell id="w3OpeOe2oCZCXjgGL1cM-20" value="2.&amp;nbsp;&lt;span style=&quot;background-color: initial;&quot;&gt;Art dealers can view sales analysis reports&lt;/span&gt;&lt;p class=&quot;MsoNormal&quot;&gt;&lt;/p&gt;&lt;p class=&quot;MsoNormal&quot;&gt;&lt;/p&gt;" style="text;html=1;align=center;verticalAlign=middle;resizable=0;points=[];autosize=1;strokeColor=none;fillColor=none;" vertex="1" parent="1">
          <mxGeometry x="265" y="840" width="260" height="40" as="geometry" />
        </mxCell>
        <mxCell id="w3OpeOe2oCZCXjgGL1cM-21" value="System&amp;nbsp;&lt;span style=&quot;background-color: initial;&quot;&gt;support 10,000+ concurrent user access.&lt;/span&gt;&lt;p class=&quot;MsoNormal&quot;&gt;&lt;/p&gt;" style="text;html=1;align=center;verticalAlign=middle;resizable=0;points=[];autosize=1;strokeColor=none;fillColor=none;" vertex="1" parent="1">
          <mxGeometry x="175" y="220" width="280" height="40" as="geometry" />
        </mxCell>
        <mxCell id="w3OpeOe2oCZCXjgGL1cM-22" value="2. Artist can upload video about art work" style="text;html=1;align=center;verticalAlign=middle;resizable=0;points=[];autosize=1;strokeColor=none;fillColor=none;" vertex="1" parent="1">
          <mxGeometry x="265" y="470" width="240" height="30" as="geometry" />
        </mxCell>
        <mxCell id="w3OpeOe2oCZCXjgGL1cM-23" value="3. Artist can upload photos about art work" style="text;html=1;align=center;verticalAlign=middle;resizable=0;points=[];autosize=1;strokeColor=none;fillColor=none;" vertex="1" parent="1">
          <mxGeometry x="265" y="500" width="240" height="30" as="geometry" />
        </mxCell>
        <mxCell id="w3OpeOe2oCZCXjgGL1cM-24" value="System limit user file uoload to 1gigbyte per file" style="text;html=1;align=center;verticalAlign=middle;resizable=0;points=[];autosize=1;strokeColor=none;fillColor=none;" vertex="1" parent="1">
          <mxGeometry x="170" y="250" width="270" height="30" as="geometry" />
        </mxCell>
        <mxCell id="w3OpeOe2oCZCXjgGL1cM-25" value="4.Artist can provide advice on the site" style="text;html=1;align=center;verticalAlign=middle;resizable=0;points=[];autosize=1;strokeColor=none;fillColor=none;" vertex="1" parent="1">
          <mxGeometry x="520" y="500" width="220" height="30" as="geometry" />
        </mxCell>
        <mxCell id="w3OpeOe2oCZCXjgGL1cM-26" value="3. Collector find art work of forgine country in the site" style="text;html=1;align=center;verticalAlign=middle;resizable=0;points=[];autosize=1;strokeColor=none;fillColor=none;" vertex="1" parent="1">
          <mxGeometry x="260" y="740" width="300" height="30" as="geometry" />
        </mxCell>
        <mxCell id="w3OpeOe2oCZCXjgGL1cM-27" value="System provided english and Japanese, Chinese language option" style="text;html=1;align=center;verticalAlign=middle;resizable=0;points=[];autosize=1;strokeColor=none;fillColor=none;" vertex="1" parent="1">
          <mxGeometry x="175" y="280" width="370" height="30" as="geometry" />
        </mxCell>
      </root>
    </mxGraphModel>
  </diagram>
</mxfile>
